<?xml version="1.0" encoding="UTF-8"?>
<svg id="Camada_1" data-name="Camada 1" xmlns="http://www.w3.org/2000/svg" viewBox="0 0 1024 1024">
  <defs>
    <style>
      .cls-1 {
        fill: #111;
        fill-rule: evenodd;
      }
    </style>
  </defs>
  <g id="Forma_1" data-name="Forma 1">
    <path class="cls-1" d="M652.14,575.56s-42.23-21.72-98.77,16.35c-41.04,27.64-39.25,83.07-39.25,83.07l20.28,323.78s46.86-3.39,90.27-13.74c40.2-9.58,77.18-26.16,77.18-26.16l-102.69-272.11s-3.99-16.51,9.16-25.51c18.19-12.45,28.78-.65,28.78-.65l242.02,170.07s25.67-28.56,45.79-60.83c21.99-35.29,38.59-74.57,38.59-74.57l-311.35-119.7Z"/>
  </g>
  <g id="Forma_1-2" data-name="Forma 1">
    <path class="cls-1" d="M427.28,550.45c-27.5-41.14-82.94-39.53-82.94-39.53l-323.85,19.18s3.23,46.87,13.43,90.31c9.44,40.23,25.9,77.27,25.9,77.27l272.45-101.77s16.52-3.94,25.48,9.24c12.39,18.23.56,28.78.56,28.78l-170.89,241.44s28.47,25.77,60.68,45.99c35.21,22.11,74.44,38.84,74.44,38.84l120.75-310.94s21.86-42.16-16.02-98.82Z"/>
  </g>
  <g id="Forma_1-3" data-name="Forma 1">
    <path class="cls-1" d="M989.63,390.83c-9.64-40.18-26.28-77.14-26.28-77.14l-271.95,103.1s-16.5,4.02-25.52-9.12c-12.48-18.17-.7-28.78-.7-28.78l169.71-242.27s-28.59-25.63-60.9-45.7c-35.32-21.94-74.62-38.48-74.62-38.48l-119.24,311.53s-21.66,42.26,16.5,98.74c27.7,41,83.13,39.12,83.13,39.12l323.75-20.76s-3.46-46.85-13.87-90.25Z"/>
  </g>
  <g id="Forma_1-4" data-name="Forma 1">
    <path class="cls-1" d="M507.55,340.97l-18.54-323.88s-46.88,3.14-90.34,13.25c-40.25,9.36-77.32,25.75-77.32,25.75l101.23,272.65s3.9,16.53-9.29,25.46c-18.26,12.35-28.78.5-28.78.5l-241.1-171.36s-25.83,28.42-46.11,60.58c-22.18,35.17-38.99,74.36-38.99,74.36l310.7,121.37s42.11,21.95,98.86-15.82c41.19-27.42,39.69-82.86,39.69-82.86Z"/>
  </g>
</svg>