<?xml version="1.0" encoding="UTF-8"?>
<svg id="Camada_1" data-name="Camada 1" xmlns="http://www.w3.org/2000/svg" viewBox="0 0 2000 2000">
  <defs>
    <style>
      .cls-1 {
        fill: #e7343a;
        fill-rule: evenodd;
      }

      .cls-2 {
        fill: #111;
      }
    </style>
  </defs>
  <g id="Forma_1" data-name="Forma 1">
    <path class="cls-1" d="M541.54,1053.87s-32.19-16.56-75.28,12.46c-31.28,21.07-29.91,63.32-29.91,63.32l15.46,246.79s35.72-2.59,68.8-10.47c30.64-7.3,58.83-19.94,58.83-19.94l-78.27-207.4s-3.04-12.58,6.98-19.44c13.86-9.49,21.94-.5,21.94-.5l184.47,129.63s19.57-21.77,34.9-46.37c16.76-26.9,29.42-56.84,29.42-56.84l-237.32-91.24Z"/>
  </g>
  <g id="Forma_1-2" data-name="Forma 1">
    <path class="cls-1" d="M370.15,1034.73c-20.96-31.36-63.22-30.13-63.22-30.13l-246.84,14.62s2.47,35.73,10.24,68.84c7.2,30.66,19.74,58.9,19.74,58.9l207.67-77.57s12.59-3,19.42,7.05c9.44,13.9.42,21.94.42,21.94l-130.25,184.03s21.7,19.64,46.25,35.06c26.84,16.85,56.74,29.61,56.74,29.61l92.04-237.01s16.66-32.13-12.21-75.33Z"/>
  </g>
  <g id="Forma_1-3" data-name="Forma 1">
    <path class="cls-1" d="M798.78,913.07c-7.35-30.63-20.03-58.8-20.03-58.8l-207.29,78.58s-12.58,3.06-19.45-6.95c-9.51-13.85-.53-21.94-.53-21.94l129.35-184.66s-21.79-19.54-46.42-34.83c-26.92-16.72-56.88-29.33-56.88-29.33l-90.88,237.45s-16.51,32.21,12.58,75.26c21.11,31.25,63.36,29.82,63.36,29.82l246.77-15.82s-2.64-35.71-10.57-68.79Z"/>
  </g>
  <g id="Forma_1-4" data-name="Forma 1">
    <path class="cls-1" d="M431.33,875.06l-14.13-246.87s-35.73,2.39-68.86,10.1c-30.68,7.14-58.94,19.63-58.94,19.63l77.16,207.82s2.98,12.6-7.08,19.41c-13.92,9.42-21.94.38-21.94.38l-183.77-130.62s-19.69,21.66-35.15,46.18c-16.91,26.81-29.72,56.68-29.72,56.68l236.82,92.51s32.1,16.73,75.35-12.06c31.4-20.9,30.25-63.16,30.25-63.16Z"/>
  </g>
  <g>
    <path class="cls-2" d="M868.68,686.1h143.42c67.3,0,95.74,28.04,95.74,75.31,0,25.24-12.02,58.09-50.88,67.3,46.87,11.22,62.89,35.25,62.89,68.9,0,47.27-26.84,83.73-100.55,83.73h-150.63v-295.25ZM1040.94,768.63c0-20.83-9.21-31.25-38.86-31.25h-69.31v68.5h60.49c29.24,0,47.67-11.62,47.67-37.26ZM1000.88,929.67c38.86,0,52.08-12.82,52.08-34.05,0-32.05-26.44-40.86-60.89-40.86h-59.29v74.91h68.1Z"/>
    <path class="cls-2" d="M1214.81,686.1h82.12l100.55,295.25h-68.1l-18.43-56.89h-110.17l-18.43,56.89h-68.1l100.55-295.25ZM1255.67,754.61l-38.46,118.58h76.92l-38.46-118.58Z"/>
    <path class="cls-2" d="M1395.48,868.38h67.7s-9.21,71.31,59.69,71.31c39.26,0,56.08-18.83,56.08-45.27,0-59.29-179.47-18.43-179.47-126.59,0-52.48,43.67-88.94,123.39-88.94,129.8,0,120.18,111.37,120.18,111.37h-67.7c0-.4,12.82-62.5-52.48-62.5-41.66,0-55.68,18.83-55.68,40.06,0,60.49,179.87,24.44,179.87,124.19,0,56.89-37.66,96.55-124.19,96.55-135.01,0-127.39-120.18-127.39-120.18Z"/>
    <path class="cls-2" d="M1716.37,686.1l73.31,133.4,72.91-133.4h77.32l-117.78,199.9v95.34h-64.9v-95.34l-117.78-199.9h76.92Z"/>
  </g>
  <g>
    <path class="cls-2" d="M932.78,1275.2h144.22v54.08h-208.32v-295.25h64.1v241.17Z"/>
    <path class="cls-2" d="M1167.93,1034.03h82.12l100.55,295.25h-68.1l-18.43-56.89h-110.17l-18.43,56.89h-68.1l100.55-295.25ZM1208.79,1102.53l-38.46,118.58h76.92l-38.46-118.58Z"/>
    <path class="cls-2" d="M1360.63,1034.03h143.42c67.3,0,95.75,28.04,95.75,75.31,0,25.24-12.02,58.09-50.88,67.3,46.87,11.22,62.9,35.25,62.9,68.91,0,47.27-26.84,83.73-100.55,83.73h-150.63v-295.25ZM1532.89,1116.56c0-20.83-9.21-31.25-38.86-31.25h-69.3v68.5h60.49c29.24,0,47.67-11.62,47.67-37.26ZM1492.83,1277.6c38.86,0,52.08-12.82,52.08-34.05,0-32.05-26.44-40.86-60.89-40.86h-59.29v74.91h68.1Z"/>
  </g>
</svg>