<?xml version="1.0" encoding="UTF-8"?>
<svg id="Camada_1" data-name="Camada 1" xmlns="http://www.w3.org/2000/svg" viewBox="0 0 2000 2000">
  <defs>
    <style>
      .cls-1 {
        fill: #e7e6e6;
        fill-rule: evenodd;
      }
    </style>
  </defs>
  <g id="Forma_1" data-name="Forma 1">
    <path class="cls-1" d="M1184.6,1089.1s-55.63-28.61-130.11,21.54c-54.07,36.41-51.7,109.43-51.7,109.43l26.71,426.51s61.73-4.47,118.91-18.09c52.95-12.62,101.67-34.47,101.67-34.47l-135.28-358.44s-5.26-21.75,12.06-33.6c23.96-16.4,37.91-.86,37.91-.86l318.8,224.02s33.82-37.62,60.31-80.13c28.97-46.49,50.84-98.23,50.84-98.23l-410.14-157.68Z"/>
  </g>
  <g id="Forma_1-2" data-name="Forma 1">
    <path class="cls-1" d="M888.41,1056.02c-36.23-54.19-109.25-52.07-109.25-52.07l-426.6,25.27s4.26,61.74,17.69,118.97c12.44,52.99,34.12,101.79,34.12,101.79l358.9-134.06s21.76-5.19,33.56,12.18c16.32,24.02.73,37.91.73,37.91l-225.1,318.04s37.5,33.95,79.93,60.59c46.39,29.13,98.05,51.17,98.05,51.17l159.07-409.6s28.8-55.53-21.1-130.18Z"/>
  </g>
  <g id="Forma_1-3" data-name="Forma 1">
    <path class="cls-1" d="M1629.17,845.75c-12.69-52.93-34.62-101.62-34.62-101.62l-358.24,135.81s-21.74,5.29-33.62-12.01c-16.44-23.94-.92-37.91-.92-37.91l223.55-319.14s-37.67-33.76-80.22-60.2c-46.53-28.9-98.3-50.69-98.3-50.69l-157.07,410.37s-28.53,55.67,21.73,130.07c36.49,54.01,109.5,51.54,109.5,51.54l426.47-27.35s-4.56-61.72-18.27-118.88Z"/>
  </g>
  <g id="Forma_1-4" data-name="Forma 1">
    <path class="cls-1" d="M994.13,780.07l-24.42-426.65s-61.75,4.14-119,17.45c-53.02,12.33-101.86,33.92-101.86,33.92l133.35,359.16s5.14,21.77-12.24,33.54c-24.05,16.27-37.92.66-37.92.66l-317.6-225.74s-34.02,37.43-60.74,79.81c-29.22,46.33-51.36,97.95-51.36,97.95l409.28,159.88s55.48,28.91,130.22-20.84c54.26-36.12,52.29-109.15,52.29-109.15Z"/>
  </g>
</svg>